<svg width="484" height="592" viewBox="0 0 484 592" fill="none" xmlns="http://www.w3.org/2000/svg">
<g clip-path="url(#clip0_2018_170)">
<path d="M241.58 116.26C273.684 116.26 299.71 90.2343 299.71 58.13C299.71 26.0257 273.684 0 241.58 0C209.476 0 183.45 26.0257 183.45 58.13C183.45 90.2343 209.476 116.26 241.58 116.26Z" fill="#AE71E6"/>
<path d="M256.182 219.296C293.375 203.99 350.332 234.832 368.923 196.03C391.774 148.36 227.127 129.907 168.245 147.263C101.266 167.008 100.704 220.673 132.646 234.049C169.518 249.483 204.065 240.716 256.182 219.296Z" fill="#A25EE0"/>
<path d="M99.1612 331.134C195.917 377.643 262.658 393.895 391.793 345.716C434.408 329.82 421.388 286.963 349.279 260.942C315.648 248.808 278.742 257.069 248.617 266.212C206.864 278.922 156.398 280.32 109.116 271.05C77.1379 264.78 38.2191 292.776 99.1612 331.134Z" fill="#964ADA"/>
<path d="M1.0833 424.418C1.0833 424.418 -11.0925 475.032 49.5465 490.463C189.858 526.191 294.662 537.157 413.011 503.947C527.071 471.936 506.048 372.731 319.233 403.568C210.031 427.744 178.222 372.331 101.039 366.139C69.5596 363.587 14.6686 377.988 1.0733 424.392" fill="#8A36D4"/>
</g>
<defs>
<clipPath id="clip0_2018_170">
<rect width="483.17" height="591.66" fill="white"/>
</clipPath>
</defs>
</svg>
